<svg id="Layer_1" data-name="Layer 1" xmlns="http://www.w3.org/2000/svg" viewBox="0 0 595.28 142.08"><defs><style>.cls-1,.cls-2{fill:#fff;}.cls-2{font-size:42.23px;font-family:Roboto-Medium, Roboto;font-weight:500;}</style></defs><path class="cls-1" d="M170.36,84.2c6.85-.62,12.56-3.54,15.85-10.06a4.35,4.35,0,0,0-.7-3.91c-3.72-4-7.75-7.72-11.58-11.62-1.82-1.85-3.39-1.69-5.13.06Q162.14,65.39,155.4,72c-1.81,1.78-1.72,3.44,0,5.25A21.85,21.85,0,0,0,170.36,84.2Z"/><path class="cls-1" d="M185.39,30.21a17.84,17.84,0,0,0-24.78-4.79,18.91,18.91,0,0,0-2,1.52c-4,3.7-7.76,7.69-11.68,11.5-2.38,2.32-3.49,2.72-5.38,1.26l-.74,20.7c1.91,1.34,4,1.73,6.27-.53,4.41-4.33,8.73-8.75,13.13-13.09,7.21-7.12,14.9-7.14,22.18-.05a41.14,41.14,0,0,0,5.38,4.84C187.75,44.26,189.87,36.9,185.39,30.21Z"/><path class="cls-1" d="M116.78,83.94c-6.85-.62-12.57-3.54-15.86-10.07a4.39,4.39,0,0,1,.71-3.9c3.71-4,7.74-7.73,11.58-11.62,1.81-1.85,3.38-1.69,5.12.06q6.66,6.71,13.41,13.34c1.8,1.78,1.71,3.43,0,5.25A21.83,21.83,0,0,1,116.78,83.94Z"/><path class="cls-1" d="M101.74,29.94a17.87,17.87,0,0,1,24.81-4.78,17.67,17.67,0,0,1,1.93,1.52c4,3.7,7.76,7.69,11.67,11.5,2.39,2.32,1.55,2.33,5.38,2.24V61c-1.9,1.33-3.23.91-5.53-1.35-4.41-4.33-8.72-8.75-13.12-13.09-7.22-7.12-14.9-7.14-22.19-.05a42.54,42.54,0,0,1-5.37,4.84C99.39,44,97.25,36.64,101.74,29.94Z"/><path class="cls-1" d="M91,57.88H46.25q.6,5.37,2.91,8a10.56,10.56,0,0,0,8.43,3.78A12.75,12.75,0,0,0,63.86,68a14.77,14.77,0,0,0,3.89-3.67l22,2q-5,8.78-12.16,12.58T57.12,82.76q-11.57,0-18.19-3.26a26.85,26.85,0,0,1-11-10.36,31.31,31.31,0,0,1-4.35-16.68q0-13.65,8.74-22.09t24.13-8.44q12.51,0,19.73,3.79a25.46,25.46,0,0,1,11,11Q91,43.91,91,55.41ZM68.3,47.2q-.66-6.47-3.48-9.27a10.12,10.12,0,0,0-7.43-2.79,10.12,10.12,0,0,0-8.49,4.22c-1.35,1.75-2.21,4.37-2.58,7.84Z"/><path class="cls-1" d="M197.1,111.24V23.91H218v8.6q4.35-5.43,7.95-7.34a22.78,22.78,0,0,1,10.79-2.58q11.67,0,18.06,8.93t6.38,22.09q0,14.52-7,22.16a22.72,22.72,0,0,1-17.59,7.64,24.36,24.36,0,0,1-9.31-1.75,22.4,22.4,0,0,1-7.59-5.2v34.78Zm22.35-58.07q0,6.9,2.91,10.24a9.29,9.29,0,0,0,7.34,3.35,8.09,8.09,0,0,0,6.55-3.21q2.64-3.21,2.63-10.87,0-7.08-2.74-10.39A8.36,8.36,0,0,0,229.42,39a9,9,0,0,0-7.12,3.34Q219.45,45.65,219.45,53.17Z"/><path class="cls-1" d="M269.09,53.17q0-13.32,9-22t24.28-8.63q17.47,0,26.41,10.14Q336,40.84,336,52.79q0,13.43-8.9,22t-24.63,8.57q-14,0-22.68-7.12Q269.09,67.47,269.09,53.17Zm22.36-.06q0,7.78,3.15,11.51a10.32,10.32,0,0,0,14.54,1.3,10,10,0,0,0,1.3-1.3q3.09-3.66,3.09-11.78,0-7.56-3.12-11.26a9.72,9.72,0,0,0-7.73-3.69,10.11,10.11,0,0,0-8.05,3.75Q291.45,45.44,291.45,53.11Z"/><path class="cls-1" d="M338.14,23.91H359.7L369,60.54l11.8-36.63H401l12.26,36.73,9.39-36.73h21.43L422.67,82.1H402.83L391,47.1l-11.39,35H359.71Z"/><path class="cls-1" d="M513.92,58.54H469.25q.6,5.37,2.91,8a10.59,10.59,0,0,0,8.44,3.78,12.72,12.72,0,0,0,6.24-1.64A14.46,14.46,0,0,0,490.68,65l22,2q-5,8.77-12.17,12.58t-20.44,3.8q-11.56,0-18.19-3.25a26.78,26.78,0,0,1-11-10.36,31.26,31.26,0,0,1-4.36-16.69q0-13.63,8.74-22.08t24.14-8.44q12.48,0,19.72,3.78a25.57,25.57,0,0,1,11,11Q513.9,44.53,513.9,56ZM491.25,47.85q-.66-6.47-3.48-9.26a10.92,10.92,0,0,0-15.43.81c-.18.19-.34.39-.51.6q-2,2.63-2.57,7.83Z"/><path class="cls-1" d="M524.38,23.91h20.87v9.53q3-6.18,6.22-8.52a13.09,13.09,0,0,1,7.92-2.33,23.6,23.6,0,0,1,10.79,3.07l-6.93,15.89A17.59,17.59,0,0,0,557,39.91a7.69,7.69,0,0,0-6.75,3.61q-3.45,5.1-3.46,19.07V82.1H524.38Z"/><text class="cls-2" transform="translate(447.56 126.37)">Health</text></svg>