<svg id="Layer_1" data-name="Layer 1" xmlns="http://www.w3.org/2000/svg" viewBox="0 0 234.72 142.08" width="200" height="200">
  <defs>
    <style>
      .cls-1 {
        fill: #fff;
      }
    </style>
  </defs>
  <path class="cls-1" d="M171.07,133.29c13.73-1.24,25.18-7.1,31.77-20.17a8.72,8.72,0,0,0-1.4-7.83c-7.46-8-15.54-15.48-23.21-23.3-3.65-3.7-6.8-3.38-10.29.12q-13.35,13.47-26.86,26.75c-3.63,3.56-3.45,6.89,0,10.52A43.83,43.83,0,0,0,171.07,133.29Z"/>
  <path class="cls-1" d="M201.2,25.06a35.78,35.78,0,0,0-49.68-9.6,34.93,34.93,0,0,0-3.9,3.05c-8,7.42-15.56,15.41-23.42,23.05-4.77,4.65-7,5.45-10.78,2.53l-1.48,41.49c3.82,2.69,8,3.47,12.56-1.06C133.34,75.84,142,67,150.82,58.28,165.28,44,180.69,44,195.29,58.18a82.67,82.67,0,0,0,10.78,9.7C205.93,53.23,210.18,38.48,201.2,25.06Z"/>
  <path class="cls-1" d="M63.67,132.77c-13.74-1.24-25.2-7.1-31.8-20.19a8.68,8.68,0,0,1,1.43-7.81c7.43-8,15.51-15.5,23.21-23.3,3.63-3.71,6.78-3.38,10.26.12Q80.12,95,93.65,108.33c3.61,3.57,3.43,6.88,0,10.53A43.85,43.85,0,0,1,63.67,132.77Z"/>
  <path class="cls-1" d="M33.52,24.52A35.79,35.79,0,0,1,83.23,15a34.74,34.74,0,0,1,3.89,3c8,7.42,15.55,15.41,23.39,23.05,4.79,4.65,3.11,4.67,10.79,4.49V86.78c-3.81,2.67-6.48,1.83-11.09-2.7-8.84-8.68-17.48-17.54-26.3-26.24C69.44,43.57,54,43.53,39.43,57.74a86.81,86.81,0,0,1-10.76,9.7C28.81,52.71,24.52,38,33.52,24.52Z"/>
</svg>
